<mxfile host="app.diagrams.net" agent="Mozilla/5.0 (X11; Ubuntu; Linux x86_64; rv:133.0) Gecko/20100101 Firefox/133.0" version="25.0.1">
  <diagram name="Seite-1" id="zHHgJ6dJqA2VrnL785nk">
    <mxGraphModel dx="954" dy="550" grid="1" gridSize="10" guides="1" tooltips="1" connect="1" arrows="1" fold="1" page="1" pageScale="1" pageWidth="827" pageHeight="1169" math="0" shadow="0">
      <root>
        <mxCell id="0" />
        <mxCell id="1" parent="0" />
        <mxCell id="c7KtkRhwdAMdaNlJ9xtw-1" value="" style="rounded=1;whiteSpace=wrap;html=1;fillColor=#d5e8d4;strokeColor=#82b366;" vertex="1" parent="1">
          <mxGeometry x="280" y="80" width="200" height="120" as="geometry" />
        </mxCell>
        <mxCell id="c7KtkRhwdAMdaNlJ9xtw-2" value="Geschäftslogik-Schicht" style="rounded=1;whiteSpace=wrap;html=1;fillColor=#dae8fc;strokeColor=#6c8ebf;" vertex="1" parent="1">
          <mxGeometry x="280" y="250" width="200" height="80" as="geometry" />
        </mxCell>
        <mxCell id="c7KtkRhwdAMdaNlJ9xtw-3" value="" style="rounded=1;whiteSpace=wrap;html=1;fillColor=#f8cecc;strokeColor=#b85450;" vertex="1" parent="1">
          <mxGeometry x="280" y="380" width="200" height="130" as="geometry" />
        </mxCell>
        <mxCell id="c7KtkRhwdAMdaNlJ9xtw-14" value="Daten-Schicht" style="text;html=1;align=center;verticalAlign=middle;whiteSpace=wrap;rounded=0;" vertex="1" parent="1">
          <mxGeometry x="280" y="386" width="100" height="30" as="geometry" />
        </mxCell>
        <mxCell id="c7KtkRhwdAMdaNlJ9xtw-15" value="UI-Schicht" style="text;html=1;align=center;verticalAlign=middle;whiteSpace=wrap;rounded=0;" vertex="1" parent="1">
          <mxGeometry x="350" y="80" width="60" height="30" as="geometry" />
        </mxCell>
        <mxCell id="c7KtkRhwdAMdaNlJ9xtw-18" style="edgeStyle=orthogonalEdgeStyle;rounded=0;orthogonalLoop=1;jettySize=auto;html=1;startArrow=classic;startFill=1;" edge="1" parent="1" source="c7KtkRhwdAMdaNlJ9xtw-16" target="c7KtkRhwdAMdaNlJ9xtw-17">
          <mxGeometry relative="1" as="geometry" />
        </mxCell>
        <mxCell id="c7KtkRhwdAMdaNlJ9xtw-19" style="edgeStyle=orthogonalEdgeStyle;rounded=0;orthogonalLoop=1;jettySize=auto;html=1;entryX=0.5;entryY=0;entryDx=0;entryDy=0;startArrow=classic;startFill=1;" edge="1" parent="1" source="c7KtkRhwdAMdaNlJ9xtw-16" target="c7KtkRhwdAMdaNlJ9xtw-2">
          <mxGeometry relative="1" as="geometry" />
        </mxCell>
        <mxCell id="c7KtkRhwdAMdaNlJ9xtw-16" value="Zustände" style="rounded=1;whiteSpace=wrap;html=1;" vertex="1" parent="1">
          <mxGeometry x="330" y="170" width="100" height="20" as="geometry" />
        </mxCell>
        <mxCell id="c7KtkRhwdAMdaNlJ9xtw-17" value="UI-Elemente" style="rounded=1;whiteSpace=wrap;html=1;" vertex="1" parent="1">
          <mxGeometry x="330" y="110" width="100" height="20" as="geometry" />
        </mxCell>
        <mxCell id="c7KtkRhwdAMdaNlJ9xtw-25" style="edgeStyle=orthogonalEdgeStyle;rounded=0;orthogonalLoop=1;jettySize=auto;html=1;startArrow=classic;startFill=1;" edge="1" parent="1" source="c7KtkRhwdAMdaNlJ9xtw-23" target="c7KtkRhwdAMdaNlJ9xtw-24">
          <mxGeometry relative="1" as="geometry" />
        </mxCell>
        <mxCell id="c7KtkRhwdAMdaNlJ9xtw-27" style="edgeStyle=orthogonalEdgeStyle;rounded=0;orthogonalLoop=1;jettySize=auto;html=1;entryX=0.5;entryY=1;entryDx=0;entryDy=0;startArrow=classic;startFill=1;" edge="1" parent="1" source="c7KtkRhwdAMdaNlJ9xtw-23" target="c7KtkRhwdAMdaNlJ9xtw-2">
          <mxGeometry relative="1" as="geometry" />
        </mxCell>
        <mxCell id="c7KtkRhwdAMdaNlJ9xtw-23" value="Repository" style="rounded=1;whiteSpace=wrap;html=1;" vertex="1" parent="1">
          <mxGeometry x="320" y="420" width="120" height="20" as="geometry" />
        </mxCell>
        <mxCell id="c7KtkRhwdAMdaNlJ9xtw-24" value="Datenquelle" style="rounded=1;whiteSpace=wrap;html=1;" vertex="1" parent="1">
          <mxGeometry x="320" y="470" width="120" height="20" as="geometry" />
        </mxCell>
      </root>
    </mxGraphModel>
  </diagram>
</mxfile>
